<svg xmlns="http://www.w3.org/2000/svg" viewBox="0 0 30 24" fill="#fff"><path d="M10,37.7v-3h3l1.5-1.5L13,31.75v0H11.5L10,30.2V25.7h1.5L10,24.2V13.7H25l-3,3v1.5l-1.5,1.5H16v3h9v1.5l-1.5,1.5H22v1.5l-1.5,1.5H16l3,3H34v-3H22l3-3v1.5l1.5-1.5H25l3-3h7.5L34,21.2V19.7H22l3-3V15.2l1.5-1.5h6L31,15.2v3l1.5-1.5H34v-3h1.5L37,15.2v0l1.5,1.45L40,18.2v6l-1.5,1.5L40,27.2v7.5l-3,3H17.5L16,36.2v1.5H10Zm7.17-16.17V20.92h0.61v0.61H17.17Zm2.72,9.28V29.64h1.17v1.17H19.89ZM23.5,34.7L22,33.2v1.5h1.5Zm6.89,2.44V35.31H28.56v1.83h1.83ZM32.45,13.7h0Z" transform="translate(-10 -13.7)"/></svg>